<svg width="16" height="17" viewBox="0 0 16 17" fill="none" xmlns="http://www.w3.org/2000/svg">
<path d="M13 6.67188H12.5V4.82812C12.5 4.21354 12.3802 3.63021 12.1406 3.07812C11.9115 2.53646 11.5938 2.0625 11.1875 1.65625C10.7812 1.25 10.3021 0.927083 9.75 0.6875C9.20833 0.447917 8.625 0.328125 8 0.328125C7.375 0.328125 6.79167 0.447917 6.25 0.6875C5.69792 0.927083 5.21875 1.25 4.8125 1.65625C4.40625 2.0625 4.08854 2.53646 3.85938 3.07812C3.61979 3.63021 3.5 4.21354 3.5 4.82812V6.67188H3C2.63542 6.67188 2.32292 6.80208 2.0625 7.0625C1.80208 7.32292 1.67188 7.63542 1.67188 8V15C1.67188 15.3646 1.80208 15.6771 2.0625 15.9375C2.32292 16.1979 2.63542 16.3281 3 16.3281H13C13.3646 16.3281 13.6771 16.1979 13.9375 15.9375C14.1979 15.6771 14.3281 15.3646 14.3281 15V8C14.3281 7.63542 14.1979 7.32292 13.9375 7.0625C13.6771 6.80208 13.3646 6.67188 13 6.67188ZM6.67188 10.6719C6.67188 10.6719 6.67188 10.6693 6.67188 10.6641C6.67188 10.6589 6.67188 10.6562 6.67188 10.6562C6.67188 10.2917 6.80208 9.97917 7.0625 9.71875C7.32292 9.45833 7.63542 9.32812 8 9.32812C8.36458 9.32812 8.67708 9.45833 8.9375 9.71875C9.19792 9.97917 9.32812 10.2917 9.32812 10.6562C9.32812 10.9062 9.26823 11.1328 9.14844 11.3359C9.02865 11.5391 8.86979 11.6979 8.67188 11.8125V13.3281C8.67188 13.5156 8.60677 13.6745 8.47656 13.8047C8.34635 13.9349 8.1875 14 8 14C7.8125 14 7.65365 13.9349 7.52344 13.8047C7.39323 13.6745 7.32812 13.5156 7.32812 13.3281V11.8125C7.13021 11.6979 6.97135 11.5391 6.85156 11.3359C6.73177 11.1328 6.67188 10.9115 6.67188 10.6719ZM5.17188 4.82812C5.17188 4.04688 5.44792 3.38021 6 2.82812C6.55208 2.27604 7.21875 2 8 2C8.78125 2 9.44792 2.27604 10 2.82812C10.5521 3.38021 10.8281 4.04688 10.8281 4.82812V6.32812C10.8281 6.42188 10.7969 6.5026 10.7344 6.57031C10.6719 6.63802 10.5938 6.67188 10.5 6.67188H5.5C5.40625 6.67188 5.32812 6.63802 5.26562 6.57031C5.20312 6.5026 5.17188 6.42188 5.17188 6.32812V4.82812Z" fill="#F3F3F3" fill-opacity="0.75"/>
</svg>
